<svg width="76" height="76" viewBox="0 0 76 76" fill="none" xmlns="http://www.w3.org/2000/svg">
<path d="M38 0C17.0132 0 0 17.0132 0 38C0 58.9868 17.0132 76 38 76C58.9868 76 76 58.9868 76 38C76 17.0132 58.9868 0 38 0ZM38 50C31.3726 50 26 44.6274 26 38C26 31.3726 31.3726 26 38 26C44.6274 26 50 31.3726 50 38C50 44.6274 44.6274 50 38 50Z" fill="#D8D8DA"/>
<path d="M42.0653 28H75C72.3163 18.1943 65.794 9.9619 57.1342 5L34 28H42.0653Z" fill="#D4B6E6"/>
<path d="M34.0111 28L57 5.0534C51.4127 1.83914 44.9309 0 38.0185 0C34.5506 0 31.1927 0.465351 28 1.33267V34L34.0111 28Z" fill="#EBAFD1"/>
<path d="M28 33.9345V1C18.1943 3.68355 9.96178 10.2058 5 18.8657L27.9999 42V33.9345H28Z" fill="#E07188"/>
<path d="M28 34L34 28.0001H41.9999V28H34L28 34Z" fill="#D8D8DA"/>
<path d="M34 47.9998L28 42L34 48H41.9999L47.9999 42L41.9999 47.9998H34Z" fill="#D8D8DA"/>
<path d="M74.6676 28H42L42.1422 28.0001L48 34.0111L70.9465 57C74.161 51.4126 76 44.9308 76 38.0184C76 34.5506 75.5346 31.1924 74.6676 28Z" fill="#B4D8F1"/>
<path d="M48 42.0653V75C57.8056 72.3164 66.0383 65.7939 71 57.1343L48 34V42.0653Z" fill="#ACFFF4"/>
<path d="M41.9889 48L19 70.9466C24.5873 74.1609 31.0691 76 37.9815 76C41.4494 76 44.8073 75.5347 48 74.6675V42L41.9889 48Z" fill="#95D5A7"/>
<path d="M33.9346 48H1C3.68383 57.8057 10.206 66.0381 18.8659 71L42 48H33.9346Z" fill="#F8E99B"/>
<path d="M28.0001 41.9889L5.05357 19C1.839 24.5874 0 31.0692 0 37.9816C0 41.4494 0.465353 44.8076 1.33238 48H34L28.0001 41.9889Z" fill="#EFC27B"/>
<path d="M42.1422 28H42L48 34L42.1422 28Z" fill="#D8D8DA"/>
<path d="M75 28C72.3138 18.1943 65.7858 9.9619 57.1183 5L38 23.9906V27.9998H42.0362H75V28Z" fill="#B681D5"/>
<path d="M57 5.05341C51.4073 1.83914 44.9192 0 38 0V24L57 5.05341Z" fill="#E592BF"/>
<path d="M38 52.0001V76C41.4614 76 44.8132 75.5347 48 74.6675V42L42 48L38 52.0001Z" fill="#80CB93"/>
<path d="M42 48H38V52L42 48Z" fill="#F6E27D"/>
</svg>
