<svg width="686" height="646" viewBox="0 0 686 646" fill="none" xmlns="http://www.w3.org/2000/svg">
<path d="M657.233 623.3C662.764 623.3 667.997 620.809 671.481 616.509C674.964 612.212 676.323 606.575 675.18 601.165L663.628 546.501C670.207 540.137 674.342 531.251 674.342 521.372C674.342 510.972 669.71 501.748 662.521 495.339V305.509L616.216 334.164V495.339C609.027 501.748 604.393 510.972 604.393 521.372C604.393 531.253 608.53 540.138 615.108 546.501L603.556 601.165C602.413 606.576 603.773 612.213 607.255 616.509C610.738 620.806 615.971 623.3 621.503 623.3H657.233ZM672.928 194.737L371.691 8.26238C362.869 2.8281 352.924 0.100098 342.979 0.100098C333.033 0.100098 323.081 2.82581 314.312 8.26238L13.0717 194.737C5.02795 199.714 0.142578 208.505 0.142578 217.966C0.142578 227.429 5.02795 236.222 13.0717 241.208L314.311 427.683C323.08 433.123 333.032 435.846 342.977 435.846C352.923 435.846 362.869 433.12 371.69 427.683L672.928 241.208C680.972 236.225 685.857 227.429 685.857 217.966C685.857 208.505 680.972 199.711 672.928 194.737ZM342.977 482.147C324.213 482.147 305.899 476.936 289.935 467.056L114.22 358.274V545.586C114.22 601.024 216.687 645.9 342.977 645.9C469.313 645.9 571.771 601.022 571.771 545.586V358.274L396.063 467.056C380.1 476.936 361.742 482.147 342.977 482.147Z" fill="black"/>
</svg>
