<svg width="600" height="600" viewBox="0 0 600 600" fill="none" xmlns="http://www.w3.org/2000/svg">
<path d="M2.28882e-05 383.333H266.667V216.667H2.28882e-05V383.333ZM566.667 600H333.333V0H566.667C575.507 0 583.986 3.51189 590.237 9.76311C596.488 16.0143 600 24.4928 600 33.3333V566.667C600 575.507 596.488 583.986 590.237 590.237C583.986 596.488 575.507 600 566.667 600ZM2.28882e-05 33.3333C2.28882e-05 24.4928 3.51189 16.0143 9.7631 9.76311C16.0143 3.51189 24.4928 0 33.3334 0H266.667V166.667H2.28882e-05V33.3333ZM2.28882e-05 566.667V433.333H266.667V600H33.3334C24.4928 600 16.0143 596.488 9.7631 590.237C3.51189 583.986 2.28882e-05 575.507 2.28882e-05 566.667Z" fill="black"/>
</svg>
