<svg width="600" height="600" viewBox="0 0 600 600" fill="none" xmlns="http://www.w3.org/2000/svg">
<path d="M600 566.667V33.3333C600 24.4928 596.488 16.0143 590.237 9.76311C583.986 3.51189 575.507 0 566.667 0H333.333V600H566.667C575.507 600 583.986 596.488 590.237 590.237C596.488 583.986 600 575.507 600 566.667ZM0 566.667V333.333H266.667V600H33.3334C24.4928 600 16.0143 596.488 9.76312 590.237C3.51191 583.986 0 575.507 0 566.667ZM0 33.3333C0 24.4928 3.51191 16.0143 9.76312 9.76311C16.0143 3.51189 24.4928 0 33.3334 0H266.667V266.667H0V33.3333Z" fill="black"/>
</svg>
