<svg width="600" height="600" viewBox="0 0 600 600" fill="none" xmlns="http://www.w3.org/2000/svg">
<path d="M600 383.333H333.333V216.667H600V383.333ZM33.3333 600H266.667V0H33.3333C24.4928 0 16.0143 3.51189 9.76311 9.76311C3.51189 16.0143 0 24.4928 0 33.3333V566.667C0 575.507 3.51189 583.986 9.76311 590.237C16.0143 596.488 24.4928 600 33.3333 600ZM600 33.3333C600 24.4928 596.488 16.0143 590.237 9.76311C583.986 3.51189 575.507 0 566.667 0H333.333V166.667H600V33.3333ZM600 566.667V433.333H333.333V600H566.667C575.507 600 583.986 596.488 590.237 590.237C596.488 583.986 600 575.507 600 566.667Z" fill="black"/>
</svg>
