<svg width="600" height="600" viewBox="0 0 600 600" fill="none" xmlns="http://www.w3.org/2000/svg">
<path d="M600 266.667H0V33.3333C0 24.4928 3.51189 16.0143 9.76311 9.76311C16.0143 3.51189 24.4928 0 33.3333 0H566.667C575.507 0 583.986 3.51189 590.237 9.76311C596.488 16.0143 600 24.4928 600 33.3333V266.667ZM33.3333 600H266.667V333.333H0V566.667C0 575.507 3.51189 583.986 9.76311 590.237C16.0143 596.488 24.4928 600 33.3333 600ZM566.667 600C575.507 600 583.986 596.488 590.237 590.237C596.488 583.986 600 575.507 600 566.667V333.333H333.333V600H566.667Z" fill="black"/>
</svg>
