<svg width="62" height="62" viewBox="0 0 62 62" fill="none" xmlns="http://www.w3.org/2000/svg">
<path d="M19.9995 13.3598L22.1494 17.212C24.0895 20.6884 23.3107 25.2489 20.2549 28.3046C20.2549 28.3046 16.5489 32.0113 23.2687 38.7314C29.9864 45.4492 33.6954 41.7451 33.6954 41.7451C36.7512 38.6893 41.3115 37.9106 44.788 39.8507L48.6401 42.0005C53.8897 44.9301 54.5095 52.2918 49.8955 56.9061C47.1229 59.6787 43.7263 61.8362 39.9716 61.9783C33.651 62.2181 22.9169 60.6185 12.1493 49.8508C1.38175 39.0832 -0.217922 28.3491 0.0217037 22.0284C0.164042 18.2737 2.32141 14.8772 5.094 12.1046C9.70814 7.49042 17.0699 8.11039 19.9995 13.3598Z" fill="white"/>
<path d="M30.032 2.12157C30.255 0.744239 31.5573 -0.190074 32.9351 0.0328851C33.0203 0.0492222 33.2949 0.10049 33.4385 0.132491C33.7262 0.196526 34.1272 0.295053 34.6272 0.440673C35.6273 0.731843 37.0242 1.21155 38.7009 1.98C42.0579 3.51858 46.5251 6.20999 51.1608 10.8443C55.7965 15.4787 58.4887 19.9446 60.0275 23.3006C60.7964 24.9768 61.2762 26.3734 61.5673 27.3731C61.7129 27.873 61.8116 28.2739 61.8756 28.5613C61.9076 28.7051 61.9312 28.8205 61.9474 28.9057L61.9669 29.0108C62.1897 30.388 61.2637 31.7442 59.886 31.9672C58.5122 32.1895 57.218 31.2594 56.9896 29.8888C56.9825 29.8518 56.963 29.7531 56.9424 29.6598C56.9006 29.4731 56.8289 29.1773 56.715 28.786C56.4869 28.0034 56.091 26.8402 55.4332 25.4063C54.1198 22.5421 51.7578 18.5869 47.5868 14.4171C43.4161 10.2474 39.4597 7.88618 36.5946 6.57305C35.1603 5.91565 33.9968 5.51976 33.2137 5.29178C32.8225 5.17782 32.3306 5.06495 32.1439 5.02341C30.7726 4.79493 29.8096 3.49497 30.032 2.12157Z" fill="white"/>
<path fill-rule="evenodd" clip-rule="evenodd" d="M31.0961 13.8003C31.4725 12.4826 32.8458 11.7196 34.1635 12.0961L33.482 14.4819C34.1635 12.0961 34.1635 12.0961 34.1635 12.0961L34.1685 12.0975L34.1735 12.0989L34.1844 12.1022L34.2102 12.1098L34.2757 12.1302C34.3253 12.1462 34.3878 12.1669 34.462 12.1933C34.6105 12.246 34.807 12.321 35.0479 12.4242C35.5299 12.6308 36.1882 12.9498 36.9975 13.4286C38.6166 14.3869 40.8272 15.9788 43.4242 18.5758C46.0212 21.1728 47.6129 23.3834 48.5713 25.0028C49.05 25.8117 49.3689 26.4703 49.5757 26.9523C49.6789 27.1931 49.754 27.3895 49.8066 27.5381C49.8331 27.6123 49.8536 27.6746 49.8698 27.7245L49.89 27.79L49.8976 27.8156L49.9009 27.8267L49.9023 27.8318C49.9023 27.8318 49.9039 27.8365 47.5179 28.5182L49.9039 27.8365C50.2804 29.1541 49.5172 30.5274 48.1998 30.9039C46.8933 31.2771 45.5319 30.5304 45.1419 29.2333L45.1297 29.1976C45.1121 29.1479 45.0757 29.05 45.0145 28.9071C44.8921 28.6215 44.6701 28.1542 44.3009 27.5303C43.5632 26.2839 42.2309 24.4006 39.9151 22.0849C37.5996 19.7692 35.7161 18.4369 34.4699 17.6992C33.8459 17.33 33.3788 17.108 33.093 16.9856C32.95 16.9243 32.8521 16.8878 32.8025 16.8702L32.7668 16.8579C31.4699 16.468 30.7229 15.1067 31.0961 13.8003Z" fill="white"/>
</svg>
